<svg width="30" height="30" viewBox="0 0 30 30" fill="none" xmlns="http://www.w3.org/2000/svg">
<path d="M0.375 15.066V24.8415C0.375 25.9875 0.837 27.1965 1.575 28.032C2.3265 28.8825 3.606 29.55 5.0055 28.8465C6.0495 28.3215 6.918 28.302 7.6245 28.776C9.3135 29.9085 11.6865 29.9085 13.3755 28.776C13.893 28.431 14.286 28.314 14.613 28.311C14.94 28.3095 15.3405 28.419 15.873 28.776C17.5635 29.9085 19.9365 29.9085 21.6255 28.776C21.945 28.563 22.4955 28.4205 23.1915 28.437C23.8725 28.452 24.5385 28.617 24.9945 28.8465C26.394 29.55 27.6735 28.8825 28.425 28.032C29.163 27.1965 29.625 25.9875 29.625 24.843V15.066C29.625 6.9585 23.082 0.375 15 0.375C6.918 0.375 0.375 6.9585 0.375 15.066ZM9.8295 20.097C11.3226 18.9812 13.136 18.3773 15 18.375C16.9275 18.375 18.711 19.0155 20.1705 20.097C20.4025 20.2775 20.5546 20.5417 20.5943 20.833C20.634 21.1243 20.5581 21.4195 20.3828 21.6555C20.2076 21.8915 19.9469 22.0496 19.6566 22.0958C19.3663 22.1421 19.0694 22.0729 18.8295 21.903C17.7241 21.0753 16.3809 20.6271 15 20.625C13.6191 20.6271 12.2759 21.0753 11.1705 21.903C11.0522 21.995 10.9167 22.0625 10.772 22.1015C10.6273 22.1404 10.4762 22.1501 10.3277 22.1299C10.1792 22.1096 10.0363 22.0599 9.90724 21.9837C9.77821 21.9074 9.66572 21.8062 9.57637 21.6858C9.48702 21.5655 9.42262 21.4285 9.38694 21.2829C9.35126 21.1374 9.34503 20.9862 9.36861 20.8381C9.39219 20.6901 9.44511 20.5483 9.52426 20.4211C9.6034 20.2938 9.70718 20.1836 9.8295 20.097ZM12.375 12V12.75C12.375 13.0484 12.2565 13.3345 12.0455 13.5455C11.8345 13.7565 11.5484 13.875 11.25 13.875C10.9516 13.875 10.6655 13.7565 10.4545 13.5455C10.2435 13.3345 10.125 13.0484 10.125 12.75V12C10.125 11.7016 10.2435 11.4155 10.4545 11.2045C10.6655 10.9935 10.9516 10.875 11.25 10.875C11.5484 10.875 11.8345 10.9935 12.0455 11.2045C12.2565 11.4155 12.375 11.7016 12.375 12ZM18.75 10.875C19.0484 10.875 19.3345 10.9935 19.5455 11.2045C19.7565 11.4155 19.875 11.7016 19.875 12V12.75C19.875 13.0484 19.7565 13.3345 19.5455 13.5455C19.3345 13.7565 19.0484 13.875 18.75 13.875C18.4516 13.875 18.1655 13.7565 17.9545 13.5455C17.7435 13.3345 17.625 13.0484 17.625 12.75V12C17.625 11.7016 17.7435 11.4155 17.9545 11.2045C18.1655 10.9935 18.4516 10.875 18.75 10.875Z" fill="white"/>
</svg>
