<svg width="12" height="15" viewBox="0 0 12 15" fill="none" xmlns="http://www.w3.org/2000/svg">
<path d="M6.00001 10.8333C6.35363 10.8333 6.69277 10.6928 6.94281 10.4428C7.19286 10.1927 7.33334 9.85358 7.33334 9.49996C7.33334 9.14634 7.19286 8.8072 6.94281 8.55715C6.69277 8.3071 6.35363 8.16663 6.00001 8.16663C5.64638 8.16663 5.30724 8.3071 5.0572 8.55715C4.80715 8.8072 4.66667 9.14634 4.66667 9.49996C4.66667 9.85358 4.80715 10.1927 5.0572 10.4428C5.30724 10.6928 5.64638 10.8333 6.00001 10.8333ZM10 4.83329C10.3536 4.83329 10.6928 4.97377 10.9428 5.22382C11.1929 5.47387 11.3333 5.813 11.3333 6.16663V12.8333C11.3333 13.1869 11.1929 13.5261 10.9428 13.7761C10.6928 14.0262 10.3536 14.1666 10 14.1666H2.00001C1.64638 14.1666 1.30724 14.0262 1.0572 13.7761C0.807147 13.5261 0.666672 13.1869 0.666672 12.8333V6.16663C0.666672 5.813 0.807147 5.47387 1.0572 5.22382C1.30724 4.97377 1.64638 4.83329 2.00001 4.83329H2.66667V3.49996C2.66667 2.6159 3.01786 1.76806 3.64298 1.14294C4.2681 0.517815 5.11595 0.166626 6.00001 0.166626C6.43774 0.166626 6.8712 0.252845 7.27562 0.420361C7.68004 0.587877 8.0475 0.833408 8.35703 1.14294C8.66656 1.45247 8.91209 1.81993 9.0796 2.22435C9.24712 2.62877 9.33334 3.06222 9.33334 3.49996V4.83329H10ZM6.00001 1.49996C5.46957 1.49996 4.96086 1.71067 4.58579 2.08575C4.21072 2.46082 4.00001 2.96953 4.00001 3.49996V4.83329H8.00001V3.49996C8.00001 2.96953 7.78929 2.46082 7.41422 2.08575C7.03915 1.71067 6.53044 1.49996 6.00001 1.49996Z" fill="white" fill-opacity="0.5"/>
</svg>
