<svg width="32" height="32" viewBox="0 0 32 32" fill="none" xmlns="http://www.w3.org/2000/svg">
<rect width="32" height="32" rx="12" fill="#FA5252"/>
<g clip-path="url(#clip0_11_96)">
<path fill-rule="evenodd" clip-rule="evenodd" d="M10 11.2857C10 10.9447 10.1355 10.6177 10.3766 10.3766C10.6177 10.1355 10.9447 10 11.2857 10H17.2857C17.6267 10 17.9537 10.1355 18.1949 10.3766C18.436 10.6177 18.5714 10.9447 18.5714 11.2857V12.9477C18.2236 13.2263 17.998 13.6293 17.9423 14.0714H14.9286C14.6753 14.0714 14.4245 14.1213 14.1905 14.2182C13.9566 14.3152 13.744 14.4572 13.5649 14.6363C13.3858 14.8154 13.2437 15.028 13.1468 15.262C13.0499 15.496 13 15.7467 13 16C13 16.2533 13.0499 16.504 13.1468 16.738C13.2437 16.972 13.3858 17.1846 13.5649 17.3637C13.744 17.5428 13.9566 17.6848 14.1905 17.7818C14.4245 17.8787 14.6753 17.9286 14.9286 17.9286H17.9423C17.998 18.3707 18.2236 18.7737 18.5714 19.0523V20.7143C18.5714 21.0553 18.436 21.3823 18.1949 21.6234C17.9537 21.8645 17.6267 22 17.2857 22H11.2857C10.9447 22 10.6177 21.8645 10.3766 21.6234C10.1355 21.3823 10 21.0553 10 20.7143V11.2857ZM19.3969 13.6917C19.2794 13.7404 19.179 13.8228 19.1083 13.9285C19.0377 14.0342 19 14.1586 19 14.2857V15.1429H14.9286C14.7012 15.1429 14.4832 15.2332 14.3225 15.3939C14.1617 15.5547 14.0714 15.7727 14.0714 16C14.0714 16.2273 14.1617 16.4453 14.3225 16.6061C14.4832 16.7668 14.7012 16.8571 14.9286 16.8571H19V17.7143C19.0001 17.8413 19.0379 17.9655 19.1085 18.0711C19.1792 18.1768 19.2795 18.2591 19.3969 18.3077C19.5143 18.3563 19.6435 18.369 19.7681 18.3443C19.8927 18.3195 20.0072 18.2584 20.0971 18.1686L21.8114 16.4543C21.9318 16.3337 21.9994 16.1704 21.9994 16C21.9994 15.8296 21.9318 15.6663 21.8114 15.5457L20.0971 13.8314C20.0073 13.7415 19.8928 13.6803 19.7682 13.6554C19.6435 13.6305 19.5143 13.6432 19.3969 13.6917Z" fill="white"/>
</g>
<defs>
<clipPath id="clip0_11_96">
<rect width="12" height="12" fill="white" transform="translate(10 10)"/>
</clipPath>
</defs>
</svg>
