<svg width="28" height="28" viewBox="0 0 28 28" fill="none" xmlns="http://www.w3.org/2000/svg">
<path d="M1.75 14C1.75 16.4228 2.46845 18.7912 3.8145 20.8057C5.16054 22.8202 7.07373 24.3904 9.31213 25.3175C11.5505 26.2447 14.0136 26.4873 16.3899 26.0146C18.7661 25.542 20.9489 24.3752 22.6621 22.6621C24.3752 20.9489 25.542 18.7661 26.0146 16.3899C26.4873 14.0136 26.2447 11.5505 25.3175 9.31213C24.3904 7.07373 22.8202 5.16054 20.8057 3.8145C18.7912 2.46845 16.4228 1.75 14 1.75C10.7511 1.75 7.63526 3.04062 5.33794 5.33794C3.04062 7.63526 1.75 10.7511 1.75 14ZM7 13.125H17.6312L12.7487 8.21887L14 7L21 14L14 21L12.7487 19.7514L17.6312 14.875H7V13.125Z" fill="white"/>
</svg>
