<svg width="14" height="14" viewBox="0 0 14 14" fill="none" xmlns="http://www.w3.org/2000/svg">
<path d="M8.40133 0.276045C8.82 -0.00128851 9.52933 -0.199289 10.0647 0.336045L13.1627 3.43471C13.7 3.97071 13.5013 4.68005 13.2233 5.09805C13.0728 5.3247 12.8769 5.51765 12.648 5.66471C12.4253 5.80671 12.144 5.91404 11.8407 5.89804C11.6939 5.88765 11.5476 5.87186 11.402 5.85071L11.3567 5.84404C11.2003 5.82162 11.043 5.80539 10.8853 5.79538C10.5493 5.77871 10.42 5.83538 10.3787 5.87538L8.71866 7.53604C8.66533 7.58938 8.59866 7.70805 8.548 7.93604C8.49933 8.15604 8.478 8.42671 8.47266 8.72671C8.468 9.01471 8.478 9.30938 8.48866 9.59338L8.48933 9.62471C8.49933 9.90671 8.50933 10.1947 8.49533 10.4207C8.452 11.108 7.91666 11.614 7.39 11.848C6.86333 12.0814 6.112 12.1394 5.59 11.6167L4.09 10.1167L1.35333 12.8534C1.30756 12.9025 1.25236 12.9419 1.19102 12.9692C1.12969 12.9966 1.06348 13.0113 0.996347 13.0124C0.929211 13.0136 0.862525 13.0013 0.800267 12.9761C0.738008 12.951 0.681452 12.9135 0.633973 12.8661C0.586493 12.8186 0.549064 12.762 0.523916 12.6998C0.498769 12.6375 0.486419 12.5708 0.487604 12.5037C0.488788 12.4366 0.503483 12.3704 0.530811 12.309C0.558139 12.2477 0.59754 12.1925 0.646665 12.1467L3.38266 9.41004L1.88266 7.91004C1.36066 7.38738 1.418 6.63671 1.652 6.11004C1.88533 5.58338 2.392 5.04805 3.07866 5.00471C3.30533 4.99071 3.59333 5.00071 3.87533 5.01071L3.90666 5.01138C4.19066 5.02138 4.48533 5.03205 4.77333 5.02738C5.07333 5.02205 5.344 5.00071 5.564 4.95205C5.792 4.90138 5.91066 4.83404 5.964 4.78071L7.624 3.12071C7.66466 3.08004 7.72133 2.95004 7.704 2.61404C7.69399 2.45635 7.67775 2.29912 7.65533 2.14271L7.64933 2.09738C7.62818 1.95179 7.61239 1.80546 7.602 1.65871C7.58533 1.35538 7.69266 1.07404 7.834 0.851378C7.978 0.624711 8.17733 0.424711 8.40133 0.276045Z" fill="white" fill-opacity="0.5"/>
</svg>
