<svg width="13" height="16" viewBox="0 0 13 16" fill="none" xmlns="http://www.w3.org/2000/svg">
<path d="M6.5 12.25C6.89782 12.25 7.27936 12.092 7.56066 11.8107C7.84196 11.5294 8 11.1478 8 10.75C8 10.3522 7.84196 9.97064 7.56066 9.68934C7.27936 9.40804 6.89782 9.25 6.5 9.25C6.10218 9.25 5.72064 9.40804 5.43934 9.68934C5.15804 9.97064 5 10.3522 5 10.75C5 11.1478 5.15804 11.5294 5.43934 11.8107C5.72064 12.092 6.10218 12.25 6.5 12.25ZM11 5.5C11.3978 5.5 11.7794 5.65804 12.0607 5.93934C12.342 6.22064 12.5 6.60218 12.5 7V14.5C12.5 14.8978 12.342 15.2794 12.0607 15.5607C11.7794 15.842 11.3978 16 11 16H2C1.60218 16 1.22064 15.842 0.93934 15.5607C0.658035 15.2794 0.5 14.8978 0.5 14.5V7C0.5 6.60218 0.658035 6.22064 0.93934 5.93934C1.22064 5.65804 1.60218 5.5 2 5.5H2.75V4C2.75 3.00544 3.14509 2.05161 3.84835 1.34835C4.55161 0.645088 5.50544 0.25 6.5 0.25C6.99246 0.25 7.48009 0.346997 7.93506 0.535452C8.39003 0.723907 8.80343 1.00013 9.15165 1.34835C9.49987 1.69657 9.77609 2.10997 9.96455 2.56494C10.153 3.01991 10.25 3.50754 10.25 4V5.5H11ZM6.5 1.75C5.90326 1.75 5.33097 1.98705 4.90901 2.40901C4.48705 2.83097 4.25 3.40326 4.25 4V5.5H8.75V4C8.75 3.40326 8.51295 2.83097 8.09099 2.40901C7.66903 1.98705 7.09674 1.75 6.5 1.75Z" fill="white"/>
</svg>
