<svg width="15" height="15" viewBox="0 0 15 15" fill="none" xmlns="http://www.w3.org/2000/svg">
<path d="M11.925 11.5425C11.73 10.9425 11.1675 10.5 10.5 10.5H9.75V8.25C9.75 8.05109 9.67098 7.86032 9.53033 7.71967C9.38968 7.57902 9.19891 7.5 9 7.5H4.5V6H6C6.19891 6 6.38968 5.92098 6.53033 5.78033C6.67098 5.63968 6.75 5.44891 6.75 5.25V3.75H8.25C8.64782 3.75 9.02936 3.59196 9.31066 3.31066C9.59196 3.02936 9.75 2.64782 9.75 2.25V1.9425C10.6474 2.30427 11.4437 2.87811 12.0708 3.61488C12.698 4.35165 13.1372 5.22941 13.351 6.17303C13.5648 7.11666 13.5467 8.09803 13.2984 9.03315C13.0501 9.96828 12.5788 10.8293 11.925 11.5425ZM6.75 13.4475C3.7875 13.08 1.5 10.56 1.5 7.5C1.5 7.035 1.56 6.585 1.6575 6.1575L5.25 9.75V10.5C5.25 10.8978 5.40804 11.2794 5.68934 11.5607C5.97064 11.842 6.35218 12 6.75 12M7.5 0C6.51509 0 5.53982 0.193993 4.62987 0.570904C3.71993 0.947814 2.89314 1.50026 2.1967 2.1967C0.790176 3.60322 0 5.51088 0 7.5C0 9.48912 0.790176 11.3968 2.1967 12.8033C2.89314 13.4997 3.71993 14.0522 4.62987 14.4291C5.53982 14.806 6.51509 15 7.5 15C9.48912 15 11.3968 14.2098 12.8033 12.8033C14.2098 11.3968 15 9.48912 15 7.5C15 6.51509 14.806 5.53982 14.4291 4.62987C14.0522 3.71993 13.4997 2.89314 12.8033 2.1967C12.1069 1.50026 11.2801 0.947814 10.3701 0.570904C9.46018 0.193993 8.48491 0 7.5 0Z" fill="white"/>
</svg>
