<svg width="24" height="24" viewBox="0 0 24 24" fill="none" xmlns="http://www.w3.org/2000/svg">
<path d="M12 22.5C14.0767 22.5 16.1068 21.8842 17.8335 20.7304C19.5602 19.5767 20.906 17.9368 21.7007 16.0182C22.4955 14.0996 22.7034 11.9884 22.2982 9.95155C21.8931 7.91475 20.8931 6.04383 19.4246 4.57538C17.9562 3.10693 16.0852 2.1069 14.0484 1.70175C12.0116 1.29661 9.90045 1.50454 7.98182 2.29926C6.0632 3.09398 4.42332 4.43979 3.26957 6.16651C2.11581 7.89323 1.5 9.9233 1.5 12C1.5 14.7848 2.60625 17.4555 4.57538 19.4246C6.54451 21.3938 9.21523 22.5 12 22.5ZM11.25 18V8.8875L7.04475 13.0725L6 12L12 6L18 12L16.9298 13.0725L12.75 8.8875V18H11.25Z" fill="white"/>
</svg>
